<svg xmlns="http://www.w3.org/2000/svg" xmlns:xlink="http://www.w3.org/1999/xlink" width="42" height="42" id="user"><defs><linearGradient id="b" x1="868.253" x2="937.656" y1="521.354" y2="588.736" gradientTransform="translate(-1161.097 316.47) scale(1.34562)" gradientUnits="userSpaceOnUse" xlink:href="#a"></linearGradient><linearGradient id="a"><stop offset="0" stop-color="#24f3d2"></stop><stop offset=".394" stop-color="#0674f0"></stop><stop offset=".507" stop-color="#6961b5"></stop><stop offset=".813" stop-color="#f34660"></stop><stop offset="1" stop-color="#ee078d"></stop></linearGradient></defs><g transform="translate(0 -1010.362)"><rect width="42" height="42" y="1010.362" fill="url(#b)" rx="8.876" ry="8.876"></rect><path fill="#fff" fill-rule="evenodd" d="M17.48 1017.36c-3.021 0-5.48 2.47-5.48 5.5 0 3.031 2.459 5.5 5.48 5.5 3.022 0 5.48-2.469 5.48-5.5.001-3.03-2.458-5.5-5.48-5.5zm0 1c2.48 0 4.481 2.008 4.48 4.5 0 2.493-2 4.5-4.48 4.5a4.483 4.483 0 0 1-4.48-4.5c0-2.492 2.001-4.5 4.48-4.5zm13.124 4.73a.5.5 0 0 0-.5.5v.512a3.96 3.96 0 0 0-.422.172l-.362-.36a.5.5 0 0 0-.707 0l-1.06 1.062a.5.5 0 0 0 0 .706l.361.362a3.852 3.852 0 0 0-.176.422h-.51a.5.5 0 0 0-.5.5v1.5a.5.5 0 0 0 .5.5h.512c.05.144.106.284.172.422l-.36.36a.5.5 0 0 0 0 .708l1.061 1.06a.5.5 0 0 0 .707 0l.362-.36c.137.066.277.123.422.173v.512a.5.5 0 0 0 .5.5h1.5a.5.5 0 0 0 .5-.5v-.512c.144-.05.284-.108.421-.174l.362.362a.5.5 0 0 0 .707 0l1.06-1.061a.5.5 0 0 0 0-.707l-.361-.361a3.86 3.86 0 0 0 .176-.422h.51a.5.5 0 0 0 .5-.5v-1.5a.5.5 0 0 0-.5-.5h-.512a3.857 3.857 0 0 0-.174-.422l.361-.361a.5.5 0 0 0 0-.707l-1.06-1.061a.5.5 0 0 0-.707 0l-.362.361a3.797 3.797 0 0 0-.421-.176v-.51a.5.5 0 0 0-.5-.5zm.5 1h.5v.339a.5.5 0 0 0 .388.488c.315.072.617.195.89.367a.5.5 0 0 0 .62-.07l.238-.238.354.353-.239.237a.5.5 0 0 0-.07.619c.171.274.296.575.367.89a.5.5 0 0 0 .487.391h.34v.5h-.338a.5.5 0 0 0-.489.389 2.878 2.878 0 0 1-.367.89.5.5 0 0 0 .07.62l.239.238-.354.353-.236-.238a.5.5 0 0 0-.62-.07 2.872 2.872 0 0 1-.89.365.5.5 0 0 0-.39.488v.34h-.5v-.338a.5.5 0 0 0-.39-.488 2.881 2.881 0 0 1-.89-.367.5.5 0 0 0-.619.068l-.238.238-.354-.353.239-.239a.5.5 0 0 0 .07-.617 2.876 2.876 0 0 1-.367-.89.5.5 0 0 0-.487-.391h-.34v-.5h.338a.5.5 0 0 0 .489-.389 2.88 2.88 0 0 1 .367-.89.5.5 0 0 0-.07-.62l-.239-.238.354-.353.236.236a.5.5 0 0 0 .62.072c.274-.171.574-.296.89-.367a.5.5 0 0 0 .39-.486zm.25 1.98c-.903 0-1.647.743-1.647 1.646 0 .903.743 1.646 1.647 1.646.903 0 1.646-.743 1.646-1.646 0-.903-.744-1.647-1.646-1.647zm0 1a.647.647 0 1 1-.001 1.293.647.647 0 0 1 0-1.294zm-16.854 2.29c-4.148 0-7.5 3.368-7.5 7.53v4.515a.5.5 0 0 0 .5.5H20.1c.06-.18.148-.353.273-.506a1.57 1.57 0 0 1-.992-.494H12v-4.021a.5.5 0 1 0-1 0v4.021H8v-4.016c0-3.626 2.891-6.529 6.5-6.529h6c1.505 0 2.88.51 3.979 1.362.25-.222.57-.362.93-.362h.173a7.447 7.447 0 0 0-5.082-2zm10.908 3.002a.5.5 0 0 0-.5.5v.893c-.31.096-.608.219-.896.369l-.63-.629a.5.5 0 0 0-.706 0l-1.543 1.543a.5.5 0 0 0 0 .707l.629.629c-.15.288-.275.586-.371.896H20.5a.5.5 0 0 0-.5.5v2.182a.5.5 0 0 0 .5.5h.893c.095.31.217.61.367.898l-.627.63a.5.5 0 0 0 0 .706l1.543 1.543a.5.5 0 0 0 .707 0l.629-.63c.288.15.586.274.896.37v.893a.5.5 0 0 0 .5.5h2.182a.5.5 0 0 0 .5-.5v-.894c.31-.096.61-.218.898-.368l.63.63a.5.5 0 0 0 .706 0l1.543-1.544a.5.5 0 0 0 0-.707l-.63-.63c.15-.288.274-.587.37-.897h.893a.5.5 0 0 0 .5-.5v-2.182a.5.5 0 0 0-.5-.5h-.895a5.38 5.38 0 0 0-.367-.896l.63-.629a.5.5 0 0 0 0-.707l-1.544-1.543a.5.5 0 0 0-.707 0l-.63.63a5.38 5.38 0 0 0-.897-.372v-.89a.5.5 0 0 0-.5-.5zm.5 1h1.182v.719a.5.5 0 0 0 .389.486c.483.11.945.301 1.365.565a.5.5 0 0 0 .619-.068l.508-.508.836.836-.506.504a.5.5 0 0 0-.07.619c.262.42.451.881.56 1.365a.5.5 0 0 0 .488.39H32v1.182h-.719a.5.5 0 0 0-.488.39c-.11.482-.3.944-.564 1.364a.5.5 0 0 0 .07.62l.508.507-.836.836-.506-.506a.5.5 0 0 0-.617-.07c-.421.263-.884.452-1.368.561a.5.5 0 0 0-.39.488v.721h-1.182v-.719a.5.5 0 0 0-.388-.488c-.484-.11-.946-.301-1.366-.565a.5.5 0 0 0-.619.07l-.506.508-.836-.836.504-.506a.5.5 0 0 0 .073-.617 4.413 4.413 0 0 1-.561-1.367.5.5 0 0 0-.488-.39H21v-1.182h.719a.5.5 0 0 0 .486-.389c.11-.483.301-.945.565-1.365a.5.5 0 0 0-.069-.62l-.508-.505.836-.836.504.504a.5.5 0 0 0 .62.072c.42-.263.88-.452 1.365-.56a.5.5 0 0 0 .39-.489v-.72zm.592 3a2.51 2.51 0 0 0-2.5 2.498 2.513 2.513 0 0 0 2.5 2.502 2.51 2.51 0 0 0 2.498-2.502 2.508 2.508 0 0 0-2.498-2.498zm0 1a1.5 1.5 0 0 1 0 3c-.826 0-1.5-.676-1.5-1.502s.674-1.498 1.5-1.498z" color="#000" font-family="sans-serif" font-weight="400" overflow="visible" style="line-height:normal;text-indent:0;text-align:start;text-decoration-line:none;text-decoration-style:solid;text-decoration-color:#000;text-transform:none;block-progression:tb;isolation:auto;mix-blend-mode:normal"></path></g></svg>