<svg xmlns="http://www.w3.org/2000/svg" xmlns:xlink="http://www.w3.org/1999/xlink" width="42" height="42" id="user"><defs><linearGradient id="b" x1="868.253" x2="937.656" y1="521.354" y2="588.736" gradientTransform="translate(-1161.097 316.47) scale(1.34562)" gradientUnits="userSpaceOnUse" xlink:href="#a"></linearGradient><linearGradient id="a"><stop offset="0" stop-color="#24f3d2"></stop><stop offset=".394" stop-color="#0674f0"></stop><stop offset=".507" stop-color="#6961b5"></stop><stop offset=".813" stop-color="#f34660"></stop><stop offset="1" stop-color="#ee078d"></stop></linearGradient></defs><g transform="translate(0 -1010.362)"><rect width="42" height="42" y="1010.362" fill="url(#b)" rx="8.876" ry="8.876"></rect><path style="line-height:normal;text-indent:0;text-align:start;text-decoration-line:none;text-decoration-style:solid;text-decoration-color:#000;text-transform:none;block-progression:tb;isolation:auto;mix-blend-mode:normal" fill="#fff" fill-rule="evenodd" d="M14.512 1019.354a.5.5 0 0 0-.5.5l-.012 2c0 .277.236.5.512.5h13a.5.5 0 0 0 .5-.5v-2.484l-.5-.016zm.488 1h9.5v1H15zm10.5 0H27v1h-1.5zm-4.5 2.995c-2.468 0-4.477 2.022-4.477 4.5 0 1.423.675 2.68 1.707 3.505h-.271c-3.294 0-5.959 2.678-5.959 5.983v5.521a.5.5 0 0 0 .5.5h2.834c.07.016.144.016.215 0H26.4c.064.013.13.013.194 0H29.5a.5.5 0 0 0 .5-.5v-5.521c0-3.305-2.665-5.983-5.959-5.983h-.271c1.032-.825 1.707-2.082 1.707-3.505 0-2.478-2.009-4.5-4.477-4.5zm0 1a3.48 3.48 0 0 1 3.477 3.5 3.48 3.48 0 0 1-3.477 3.5 3.48 3.48 0 0 1-3.477-3.5 3.48 3.48 0 0 1 3.477-3.5zm-3.041 8.005h1.7l-.366 5.332a.5.5 0 0 0 .156.4l1.21 1.134a.5.5 0 0 0 .683 0l1.209-1.133a.5.5 0 0 0 .156-.4l-.365-5.333h1.699a4.95 4.95 0 0 1 4.959 4.983v5.021h-2v-2.513a.5.5 0 1 0-1 0v2.513H15.941v-2.51a.5.5 0 1 0-1 0v2.51H13v-5.021a4.95 4.95 0 0 1 4.959-4.983zm2.703 0h.678l.353 5.165-.693.65-.693-.65z" color="#000" font-family="sans-serif" font-weight="400" overflow="visible"></path></g></svg>